<?xml version="1.0" encoding="utf-8"?>
<!-- Generator: Adobe Illustrator 16.0.0, SVG Export Plug-In . SVG Version: 6.00 Build 0)  -->
<!DOCTYPE svg PUBLIC "-//W3C//DTD SVG 1.1//EN" "http://www.w3.org/Graphics/SVG/1.1/DTD/svg11.dtd">
<svg version="1.1" id="Layer_1" xmlns="http://www.w3.org/2000/svg" xmlns:xlink="http://www.w3.org/1999/xlink" x="0px" y="0px"
	 width="300px" height="300px" viewBox="0 0 300 300" enable-background="new 0 0 300 300" xml:space="preserve">
<g>
	<path d="M138.01,10.12c27.78-2.66,56.35,3.47,80.54,17.41c23.61,13.57,43.13,34.29,54.91,58.87c11.07,22.42,15.35,47.96,13.02,72.8
		c-2.63,28.31-14.52,55.62-33.37,76.89c-20.34,23.22-48.79,39.22-79.26,44.28c-24.9,4.22-51,1.57-74.41-7.99
		c-29.9-12.04-55.23-35.09-69.91-63.8c-13.14-25.09-17.89-54.38-13.79-82.36c3.81-27.04,16.14-52.77,34.69-72.79
		C72.94,28.83,104.78,13.03,138.01,10.12z M133.54,26.79c-37.93,5.16-72.41,29.86-89.78,63.94c-12.51,24-16.48,52.3-11.08,78.81
		c5.29,26.97,20.28,51.89,41.56,69.28c20.81,17.3,47.67,27.21,74.74,27.44c26.68,0.52,53.43-8.3,74.58-24.56
		c20.72-15.68,36.13-38.28,43.08-63.33c7.49-26.62,5.45-55.84-5.83-81.1c-10.37-23.54-28.56-43.51-50.94-56.16
		C186.95,28.07,159.63,22.93,133.54,26.79z"/>
</g>
<g>
	<path d="M143.66,46.79c4.72,9.45,9.58,18.83,14.46,28.21c-1.53,0-3.06,0.02-4.59,0.04c-1.11-2.17-2.18-4.37-3.21-6.59
		c-3.83,0.33-7.67,0.51-11.51,0.58c-0.96,2.29-1.86,4.61-2.75,6.93c-1.46,0.11-2.92,0.22-4.39,0.33
		C135.59,66.42,139.61,56.6,143.66,46.79z M144.03,55.83c-1.28,3.15-2.54,6.31-3.78,9.48c2.77-0.19,5.54-0.34,8.31-0.36
		C147.09,61.89,145.57,58.85,144.03,55.83z"/>
</g>
<g>
	<path d="M180.38,52.82c4.75,2.22,10.59,3.7,13.32,8.61c4.59,7.36-0.25,18.44-8.73,20.16c-5.49,1.51-10.56-1.86-15.46-3.78
		C173.1,69.47,176.76,61.15,180.38,52.82z M174.77,75.97c2.85,1.2,5.94,2.69,9.09,1.78c6.23-1.25,9.58-9.51,6.1-14.78
		c-1.73-2.57-4.62-3.9-7.39-5.03C180.02,63.97,177.35,69.95,174.77,75.97z"/>
</g>
<path d="M101.09,57.22c6.8,7.25,13.32,14.77,20.19,21.97c-1.21,0.76-2.42,1.53-3.62,2.3c-3.66-4.16-7.39-8.26-10.98-12.47
	c0.76,6.44,1.72,12.86,2.62,19.28c-5.35-3.6-10.74-7.14-16.09-10.76c2.11,5.15,4.18,10.3,6.35,15.42c-1.2,0.77-2.41,1.54-3.61,2.31
	c-3.63-9.29-7.23-18.59-10.91-27.86c6.4,4.38,12.93,8.58,19.32,12.97C103.31,72.69,102.22,64.93,101.09,57.22z"/>
<path d="M219.45,76.81c3.47,3.59,6.72,7.38,10.16,10.99c-0.94,0.81-1.88,1.62-2.81,2.43c-2.53-2.59-4.82-5.4-7.43-7.91
	c-1.58,1.54-3.19,3.04-4.85,4.48c2.29,2.64,4.67,5.21,7.06,7.77c-0.9,0.86-1.79,1.72-2.69,2.58c-2.4-2.56-4.76-5.16-7.1-7.77
	c-2.31,2.01-4.59,4.04-6.75,6.21c2.48,2.58,4.82,5.28,7.27,7.89c-0.69,0.63-2.08,1.89-2.77,2.52c-3.35-3.64-6.62-7.35-10.05-10.92
	C206.1,88.95,212.85,82.95,219.45,76.81z"/>
<path d="M146.23,90.53c5.91,6.01,11.62,12.19,17.55,18.18c-0.06-5.57-0.02-11.14-0.03-16.71c0.87,0,2.63,0,3.5,0
	c0.03,8.57-0.06,17.15,0.05,25.72c-5.93-6.04-11.68-12.24-17.53-18.36c-0.04,5.63-0.01,11.26-0.02,16.89c-1.17,0-2.33,0-3.5,0
	C146.24,107.68,146.28,99.11,146.23,90.53z"/>
<path d="M136.75,92c0.87,0,2.63,0,3.5,0c0,8.08,0,16.17,0,24.25c-0.88,0-2.62,0-3.5,0C136.75,108.17,136.75,100.08,136.75,92z"/>
<path fill="#FEC10E" d="M128.52,140.44c3.08-6.23,9.54-10.22,16.33-11.1c7.62-1.05,16.4-0.06,22.05,5.71
	c5.78,6.15,6.97,15.09,6.87,23.2c-4.25,0-8.51,0-12.76,0c-0.05-5.37,0.3-11.48-3.28-15.91c-3.62-3.46-9.48-3.57-13.85-1.55
	c-5.06,2.69-6.5,8.88-6.68,14.16c-0.44,10.02-0.09,20.06-0.21,30.09c0.23,6.23,0.03,12.96,3.44,18.47
	c4.01,6.33,14.88,5.93,18.42-0.7c3.21-5.96,2.92-12.99,2.89-19.56c-4.16,0-8.33,0-12.49,0c0-3.17,0-6.33,0-9.5
	c8.42,0,16.83,0,25.25,0c0.01,14.58,0,29.17,0,43.75c-3.21,0-6.42,0-9.63,0c-0.96-2.93-1.96-5.85-2.91-8.78
	c-1.78,4.39-5.04,8.88-10.08,9.57c-5.56,0.66-11.46-0.25-16.36-3.05c-5.35-3.21-8.35-9.13-9.64-15.05
	c-2.28-10.25-1.47-20.81-1.63-31.22C124.25,159.38,123.88,149.16,128.52,140.44z"/>
<g>
	<path fill="#FEC10E" d="M67.75,130c8.12,0.02,16.24-0.04,24.35,0.02c6.09,0.14,12.47,2.85,15.68,8.24
		c3.77,6.09,4.03,13.53,3.64,20.47c-0.47,6.17-3.53,12.49-9.17,15.47c-6.71,3.76-14.64,2.62-22,2.8c0,13.5,0,27,0,40.5
		c-4.17,0-8.33,0-12.5,0C67.75,188.33,67.75,159.17,67.75,130z M80.25,139.5c0.01,9.35-0.02,18.7,0.02,28.05
		c5.75-0.59,13.45,0.74,17.02-5.01c2.36-5.27,1.88-11.61,0.22-17.03C94.64,138.89,86.24,139.51,80.25,139.5z"/>
</g>
<path fill="#FEC10E" d="M191.49,130.01c4.17-0.02,8.34-0.01,12.51-0.01c0,12.5,0,25,0,37.5c7.25,0,14.49-0.01,21.74,0
	c0.02-12.5,0-25,0.01-37.5c4.25,0,8.5-0.01,12.76,0.01c-0.02,29.16,0,58.33-0.01,87.49c-4.25,0-8.5,0-12.75,0c0-13.5,0-27,0-40.5
	c-7.25-0.01-14.5,0-21.75,0c0,13.5,0,27,0,40.5c-4.17,0-8.33,0-12.5,0C191.49,188.34,191.51,159.17,191.49,130.01z"/>
</svg>
